<svg width="16" height="16" viewBox="0 0 16 16" fill="none" xmlns="http://www.w3.org/2000/svg">
<g clip-path="url(#clip0_2217_17914)">
<path d="M11.9601 11.9593C10.8205 12.828 9.43282 13.3093 8.00008 13.3327C3.33341 13.3327 0.666748 7.99935 0.666748 7.99935C1.49601 6.45395 2.64617 5.10375 4.04008 4.03935M6.60008 2.82602C7.05897 2.7186 7.52879 2.66491 8.00008 2.66602C12.6667 2.66602 15.3334 7.99935 15.3334 7.99935C14.9287 8.75642 14.4461 9.46917 13.8934 10.126M9.41341 9.41268C9.23032 9.60918 9.00951 9.76679 8.76418 9.8761C8.51885 9.98541 8.25402 10.0442 7.98547 10.0489C7.71693 10.0537 7.45019 10.0043 7.20115 9.90368C6.95212 9.80309 6.7259 9.65337 6.53598 9.46345C6.34606 9.27353 6.19634 9.04731 6.09575 8.79828C5.99516 8.54924 5.94577 8.2825 5.9505 8.01396C5.95524 7.74541 6.01402 7.48058 6.12333 7.23525C6.23264 6.98992 6.39025 6.76911 6.58675 6.58602M0.666748 0.666016L15.3334 15.3327" stroke="#1E1E1E" stroke-width="1.6" stroke-linecap="round" stroke-linejoin="round"/>
</g>
<defs>
<clipPath id="clip0_2217_17914">
<rect width="16" height="16" fill="white"/>
</clipPath>
</defs>
</svg>
