<svg width="20" height="20" viewBox="0 0 20 20" fill="none" xmlns="http://www.w3.org/2000/svg">
<path d="M11.6668 1.66602H5.00016C4.55814 1.66602 4.13421 1.84161 3.82165 2.15417C3.50909 2.46673 3.3335 2.89065 3.3335 3.33268V16.666C3.3335 17.108 3.50909 17.532 3.82165 17.8445C4.13421 18.1571 4.55814 18.3327 5.00016 18.3327H15.0002C15.4422 18.3327 15.8661 18.1571 16.1787 17.8445C16.4912 17.532 16.6668 17.108 16.6668 16.666V6.66602M11.6668 1.66602L16.6668 6.66602M11.6668 1.66602L11.6668 6.66602H16.6668M13.3335 10.8327H6.66683M13.3335 14.166H6.66683M8.3335 7.49935H6.66683" stroke="#F3F3F3" stroke-width="2" stroke-linecap="round" stroke-linejoin="round"/>
</svg>
