<svg width="26" height="37" viewBox="0 0 26 37" fill="none" xmlns="http://www.w3.org/2000/svg">
<path d="M7.58333 13.8743V10.791H22.75V13.8743H7.58333ZM7.58333 20.041V16.9577H22.75V20.041H7.58333ZM7.58333 26.2077V23.1243H22.75V26.2077H7.58333ZM4.33333 13.8743C4.02639 13.8743 3.7691 13.7266 3.56146 13.4311C3.35382 13.1356 3.25 12.7695 3.25 12.3327C3.25 11.8959 3.35382 11.5297 3.56146 11.2342C3.7691 10.9388 4.02639 10.791 4.33333 10.791C4.64028 10.791 4.89757 10.9388 5.10521 11.2342C5.31285 11.5297 5.41667 11.8959 5.41667 12.3327C5.41667 12.7695 5.31285 13.1356 5.10521 13.4311C4.89757 13.7266 4.64028 13.8743 4.33333 13.8743ZM4.33333 20.041C4.02639 20.041 3.7691 19.8933 3.56146 19.5978C3.35382 19.3023 3.25 18.9362 3.25 18.4993C3.25 18.0625 3.35382 17.6964 3.56146 17.4009C3.7691 17.1054 4.02639 16.9577 4.33333 16.9577C4.64028 16.9577 4.89757 17.1054 5.10521 17.4009C5.31285 17.6964 5.41667 18.0625 5.41667 18.4993C5.41667 18.9362 5.31285 19.3023 5.10521 19.5978C4.89757 19.8933 4.64028 20.041 4.33333 20.041ZM4.33333 26.2077C4.02639 26.2077 3.7691 26.0599 3.56146 25.7645C3.35382 25.469 3.25 25.1028 3.25 24.666C3.25 24.2292 3.35382 23.8631 3.56146 23.5676C3.7691 23.2721 4.02639 23.1243 4.33333 23.1243C4.64028 23.1243 4.89757 23.2721 5.10521 23.5676C5.31285 23.8631 5.41667 24.2292 5.41667 24.666C5.41667 25.1028 5.31285 25.469 5.10521 25.7645C4.89757 26.0599 4.64028 26.2077 4.33333 26.2077Z" fill="white"/>
</svg>
