<svg width="33" height="29" viewBox="0 0 33 29" fill="none" xmlns="http://www.w3.org/2000/svg">
<path d="M8.25 10.8743V2.41602H24.75V10.8743M8.25 21.7493H5.5C4.77065 21.7493 4.07118 21.4947 3.55546 21.0415C3.03973 20.5883 2.75 19.9736 2.75 19.3327V13.291C2.75 12.6501 3.03973 12.0354 3.55546 11.5822C4.07118 11.129 4.77065 10.8743 5.5 10.8743H27.5C28.2293 10.8743 28.9288 11.129 29.4445 11.5822C29.9603 12.0354 30.25 12.6501 30.25 13.291V19.3327C30.25 19.9736 29.9603 20.5883 29.4445 21.0415C28.9288 21.4947 28.2293 21.7493 27.5 21.7493H24.75M8.25 16.916H24.75V26.5827H8.25V16.916Z" stroke="#1E1E1E" stroke-width="2" stroke-linecap="round" stroke-linejoin="round"/>
</svg>
