<svg width="88" height="90" viewBox="0 0 88 90" fill="none" xmlns="http://www.w3.org/2000/svg">
<path d="M62.3332 78.75V71.25C62.3332 67.2718 60.7879 63.4564 58.0374 60.6434C55.2869 57.8304 51.5564 56.25 47.6665 56.25H18.3332C14.4433 56.25 10.7128 57.8304 7.96227 60.6434C5.21174 63.4564 3.6665 67.2718 3.6665 71.25V78.75M84.3332 78.75V71.25C84.3308 67.9265 83.2491 64.6979 81.2582 62.0712C79.2672 59.4445 76.4797 57.5684 73.3332 56.7375M58.6665 11.7375C61.8214 12.5636 64.6176 14.4401 66.6145 17.0712C68.6114 19.7022 69.6953 22.9381 69.6953 26.2688C69.6953 29.5994 68.6114 32.8353 66.6145 35.4663C64.6176 38.0974 61.8214 39.9739 58.6665 40.8M47.6665 26.25C47.6665 34.5343 41.1 41.25 32.9998 41.25C24.8997 41.25 18.3332 34.5343 18.3332 26.25C18.3332 17.9657 24.8997 11.25 32.9998 11.25C41.1 11.25 47.6665 17.9657 47.6665 26.25Z" stroke="#1E1E1E" stroke-width="4" stroke-linecap="round" stroke-linejoin="round"/>
</svg>
