<svg width="92" height="83" viewBox="0 0 92 83" fill="none" xmlns="http://www.w3.org/2000/svg">
<path d="M61.3335 72.625V65.7083C61.3335 62.0395 59.718 58.5209 56.8425 55.9267C53.9669 53.3324 50.0668 51.875 46.0002 51.875H19.1668C15.1002 51.875 11.2001 53.3324 8.32453 55.9267C5.44897 58.5209 3.8335 62.0395 3.8335 65.7083V72.625M76.6668 27.6667V48.4167M88.1668 38.0417H65.1668M47.9168 24.2083C47.9168 31.8483 41.0519 38.0417 32.5835 38.0417C24.1151 38.0417 17.2502 31.8483 17.2502 24.2083C17.2502 16.5684 24.1151 10.375 32.5835 10.375C41.0519 10.375 47.9168 16.5684 47.9168 24.2083Z" stroke="#1E1E1E" stroke-width="4" stroke-linecap="round" stroke-linejoin="round"/>
</svg>
